<svg width="140" height="157" viewBox="0 0 140 157" fill="none" xmlns="http://www.w3.org/2000/svg">
<path d="M68.0339 101.354C56.8259 101.354 47.7059 92.235 47.7059 81.025C47.7059 69.817 56.8249 60.697 68.0339 60.697C79.2419 60.697 88.3619 69.816 88.3619 81.025C88.3619 92.235 79.2419 101.354 68.0339 101.354ZM68.0339 67.366C60.5029 67.366 54.3749 73.494 54.3749 81.025C54.3749 88.557 60.5029 94.686 68.0339 94.686C75.5649 94.686 81.6929 88.558 81.6929 81.025C81.6929 73.494 75.5649 67.366 68.0339 67.366Z" fill="#231F20"/>
<path d="M68.0339 156.91C50.0379 156.91 35.9419 123.578 35.9419 81.0251C35.9419 38.4731 50.0389 5.14111 68.0339 5.14111C86.0299 5.14111 100.126 38.4731 100.126 81.0251C100.126 100.814 97.0519 119.47 91.4689 133.555C90.7899 135.266 88.8549 136.107 87.1409 135.426C85.4289 134.747 84.5909 132.809 85.2699 131.097C90.5499 117.774 93.4589 99.9921 93.4589 81.0241C93.4589 48.2871 83.0169 11.8091 68.0349 11.8091C53.0529 11.8091 42.6109 48.2871 42.6109 81.0241C42.6109 113.762 53.0529 150.241 68.0349 150.241C72.7589 150.241 76.7239 146.097 79.2169 142.621C80.2899 141.124 82.3749 140.784 83.8699 141.856C85.3669 142.929 85.7089 145.012 84.6349 146.509C79.7529 153.314 74.0129 156.91 68.0339 156.91Z" fill="#231F20"/>
<path d="M111.481 127.91C95.7059 127.91 74.1459 121.38 52.2089 108.945C34.9929 99.1881 20.2799 87.3151 10.7779 75.5111C0.618937 62.8911 -2.49306 51.5601 2.01594 43.6071C2.92494 42.0051 4.95693 41.4441 6.56093 42.3511C8.16293 43.2591 8.72494 45.2941 7.81694 46.8961C4.79494 52.2291 7.76694 61.1351 15.9729 71.3291C24.9579 82.4921 38.9949 93.7911 55.4969 103.143C83.9759 119.285 120.86 128.187 128.25 115.154C131.272 109.821 128.3 100.915 120.094 90.7211C111.109 79.5581 97.0719 68.2601 80.5699 58.9071C56.2219 45.1091 30.3469 38.1361 16.1799 41.5651C14.3909 42.0001 12.5889 40.8991 12.1549 39.1081C11.7219 37.3181 12.8229 35.5161 14.6119 35.0831C30.5549 31.2321 57.7369 38.3011 83.8589 53.1061C101.075 62.8631 115.788 74.7361 125.29 86.5401C135.449 99.1601 138.561 110.491 134.052 118.444C130.437 124.823 122.326 127.91 111.481 127.91Z" fill="#231F20"/>
<path d="M24.5869 127.91C13.7389 127.91 5.63194 124.823 2.01594 118.444C-2.49306 110.491 0.618937 99.16 10.7779 86.54C20.2789 74.737 34.9919 62.863 52.2089 53.106C89.2299 32.122 125.177 27.954 134.052 43.607C136.847 48.539 136.725 54.911 133.697 62.032C132.978 63.73 131.017 64.521 129.325 63.797C127.629 63.077 126.84 61.119 127.56 59.425C129.083 55.842 130.438 50.759 128.25 46.896C120.859 33.858 83.9789 42.763 55.4969 58.907C38.9939 68.261 24.9579 79.558 15.9729 90.721C7.76694 100.915 4.79494 109.821 7.81694 115.154C15.2099 128.195 52.0909 119.286 80.5699 103.143C97.3969 93.607 111.596 82.104 120.553 70.754C121.695 69.31 123.793 69.059 125.236 70.202C126.683 71.343 126.929 73.44 125.788 74.885C116.309 86.898 101.419 98.993 83.8589 108.945C61.9229 121.379 40.3599 127.909 24.5869 127.91Z" fill="#231F20"/>
<path d="M131.151 53.7279C135.832 53.7279 139.627 49.9331 139.627 45.2519C139.627 40.5707 135.832 36.7759 131.151 36.7759C126.47 36.7759 122.675 40.5707 122.675 45.2519C122.675 49.9331 126.47 53.7279 131.151 53.7279Z" fill="#BAE0E9"/>
<path d="M37.9049 91.4404C38.9844 86.8852 36.1667 82.3174 31.6115 81.2379C27.0562 80.1584 22.4884 82.9761 21.4089 87.5313C20.3294 92.0866 23.1471 96.6544 27.7024 97.7339C32.2576 98.8133 36.8254 95.9957 37.9049 91.4404Z" fill="#BAE0E9"/>
<path d="M68.0338 16.952C72.715 16.952 76.5099 13.1572 76.5099 8.47601C76.5099 3.79485 72.715 0 68.0338 0C63.3527 0 59.5579 3.79485 59.5579 8.47601C59.5579 13.1572 63.3527 16.952 68.0338 16.952Z" fill="#BAE0E9"/>
</svg>
