<?xml version="1.0"?>
<svg width="149" height="163" xmlns="http://www.w3.org/2000/svg" xmlns:svg="http://www.w3.org/2000/svg" enable-background="new 0 0 1200 1200" version="1.1" xml:space="preserve">
 <g class="layer">
  <title>Layer 1</title>
  <g id="XMLID_20_">
   <g id="XMLID_67_">
    <path d="m72.61,103.69c-11.21,0 -20.33,-9.11 -20.33,-20.32c0,-11.21 9.12,-20.33 20.33,-20.33c11.2,0 20.32,9.12 20.32,20.33c0,11.2 -9.12,20.32 -20.32,20.32zm0,-33.98c-7.54,0 -13.66,6.12 -13.66,13.66c0,7.53 6.12,13.66 13.66,13.66c7.53,0 13.65,-6.13 13.65,-13.66c0,-7.54 -6.12,-13.66 -13.65,-13.66z" fill="#231F20" id="XMLID_156_"/>
   </g>
   <g id="XMLID_76_">
    <path d="m72.61,159.25c-18,0 -32.1,-33.33 -32.1,-75.88c0,-42.56 14.1,-75.89 32.1,-75.89c17.99,0 32.09,33.33 32.09,75.89c0,19.78 -3.08,38.44 -8.66,52.52c-0.68,1.72 -2.61,2.56 -4.33,1.88c-1.71,-0.68 -2.55,-2.62 -1.87,-4.33c5.28,-13.33 8.19,-31.11 8.19,-50.08c0,-32.73 -10.44,-69.21 -25.42,-69.21c-14.98,0 -25.43,36.48 -25.43,69.21c0,32.74 10.45,69.22 25.43,69.22c4.72,0 8.69,-4.14 11.18,-7.62c1.07,-1.5 3.16,-1.84 4.65,-0.76c1.5,1.07 1.84,3.15 0.77,4.65c-4.89,6.8 -10.63,10.4 -16.6,10.4z" fill="#231F20" id="XMLID_155_"/>
   </g>
   <g id="XMLID_77_">
    <path d="m116.05,130.25c-15.77,0 -37.33,-6.53 -59.27,-18.96c-17.22,-9.76 -31.93,-21.63 -41.43,-33.44c-10.16,-12.62 -13.27,-23.95 -8.76,-31.9c0.91,-1.6 2.94,-2.17 4.54,-1.26c1.61,0.91 2.17,2.94 1.26,4.55c-3.02,5.33 -0.05,14.24 8.16,24.43c8.98,11.16 23.02,22.46 39.52,31.81c28.48,16.15 65.36,25.05 72.75,12.01c3.02,-5.33 0.05,-14.23 -8.15,-24.43c-8.99,-11.16 -23.03,-22.46 -39.53,-31.81c-24.35,-13.8 -50.22,-20.77 -64.39,-17.34c-1.79,0.43 -3.59,-0.67 -4.02,-2.46c-0.44,-1.79 0.67,-3.59 2.45,-4.03c15.95,-3.85 43.13,3.22 69.25,18.03c17.22,9.75 31.93,21.63 41.43,33.43c10.16,12.62 13.27,23.95 8.76,31.9c-3.61,6.38 -11.72,9.47 -22.57,9.47z" fill="#231F20" id="XMLID_154_"/>
   </g>
   <g id="XMLID_79_">
    <path d="m29.16,130.25c-10.85,0 -18.96,-3.09 -22.57,-9.47c-4.51,-7.95 -1.4,-19.28 8.76,-31.9c9.5,-11.8 24.21,-23.68 41.43,-33.43c37.02,-20.99 72.97,-25.16 81.84,-9.5c2.8,4.93 2.68,11.3 -0.35,18.42c-0.72,1.7 -2.68,2.49 -4.37,1.77c-1.7,-0.72 -2.49,-2.68 -1.77,-4.38c1.52,-3.58 2.88,-8.66 0.69,-12.52c-7.39,-13.04 -44.27,-4.14 -72.75,12.01c-16.5,9.35 -30.54,20.65 -39.53,31.81c-8.2,10.2 -11.17,19.1 -8.15,24.43c7.39,13.05 44.27,4.14 72.75,-12.01c16.83,-9.53 31.03,-21.04 39.98,-32.39c1.15,-1.44 3.24,-1.69 4.69,-0.55c1.44,1.14 1.69,3.24 0.55,4.68c-9.48,12.02 -24.37,24.11 -41.93,34.06c-21.93,12.44 -43.5,18.97 -59.27,18.97z" fill="#231F20" id="XMLID_95_"/>
   </g>
   <circle cx="135.72" cy="47.59" fill="#BAE0E9" id="XMLID_75_" r="8.48"/>
   <ellipse cx="691.14" cy="23.04" fill="#BAE0E9" id="XMLID_82_" rx="8.48" ry="8.48" transform="matrix(0.2306 -0.9731 0.9731 0.2306 -147.563 759.064)"/>
   <circle cx="72.61" cy="10.82" fill="#BAE0E9" id="XMLID_85_" r="8.48"/>
  </g>
 </g>
</svg>